<?xml version="1.0" encoding="UTF-8"?>
<svg width="16" height="16" viewBox="0 0 16 16" fill="none" xmlns="http://www.w3.org/2000/svg">
    <path d="M8 0C3.58172 0 0 3.58172 0 8C0 12.4183 3.58172 16 8 16C12.4183 16 16 12.4183 16 8C16 3.58172 12.4183 0 8 0ZM14 8C14 9.38042 13.5892 10.6584 12.8907 11.7295C12.6157 11.2716 12.2366 10.8784 11.7789 10.5795C11.321 10.2807 10.7961 10.0837 10.2416 10.0016C9.68711 9.91961 9.12018 9.95435 8.58146 10.1034C8.04273 10.2525 7.54576 10.5121 7.12711 10.8644C6.70846 11.2167 6.37789 11.6532 6.15912 12.1421C5.94035 12.631 5.83901 13.1599 5.86188 13.6906C5.88475 14.2213 6.03122 14.7397 6.29 15.2068C5.15069 14.7298 4.17996 13.9187 3.50552 12.8881C2.83108 11.8574 2.48353 10.6525 2.50449 9.42824C2.52545 8.20401 2.91399 7.01374 3.62466 6.00756C4.33533 5.00137 5.33745 4.22775 6.49457 3.78385C7.65169 3.33995 8.91339 3.24615 10.1235 3.51533C11.3336 3.78451 12.4398 4.40597 13.3125 5.30563C14.1853 6.20529 14.7876 7.34789 15.0359 8.57157L14 8Z" fill="currentColor"/>
</svg>
