<?xml version="1.0" encoding="UTF-8"?>
<svg width="512" height="512" viewBox="0 0 512 512" fill="none" xmlns="http://www.w3.org/2000/svg">
    <rect width="512" height="512" fill="#3B82F6"/>
    <path d="M256 128C179.3 128 128 179.3 128 256C128 332.7 179.3 384 256 384C332.7 384 384 332.7 384 256C384 179.3 332.7 128 256 128ZM256 352C197.3 352 160 314.7 160 256C160 197.3 197.3 160 256 160C314.7 160 352 197.3 352 256C352 314.7 314.7 352 256 352Z" fill="white"/>
    <path d="M256 192C215.3 192 192 215.3 192 256C192 296.7 215.3 320 256 320C296.7 320 320 296.7 320 256C320 215.3 296.7 192 256 192ZM256 288C233.3 288 224 278.7 224 256C224 233.3 233.3 224 256 224C278.7 224 288 233.3 288 256C288 278.7 278.7 288 256 288Z" fill="white"/>
</svg>
